# xmcd CD database file
#
# Track frame offsets:
#	183
#	42960
#	63000
#	94328
#	107905
#	126698
#	143220
#	157363
#	183605
#	213498
#	232873
#
# Disc length: 3341 seconds
#
# Revision: 0
# Processed by: cddbd v1.4PL0 Copyright (c) Steve Scherf et al.
# Submitted via: CDex 1.50
#
DISCID=a70d0b0b
DTITLE=Harold Danko and Kirk Lightsey - Shorter by two
DYEAR=1983
DGENRE=Jazz
TTITLE0=Ana Maria
TTITLE1=Delores
TTITLE2=Dance cadaverious
TTITLE3=Pinocchio
TTITLE4=Marie Antoinette
TTITLE5=Armageddon
TTITLE6=Lester left town
TTITLE7=Witch hunt
TTITLE8=Iris
TTITLE9=El gaucho
TTITLE10=Nefertiti
EXTD=YEAR: 1983
EXTT0=
EXTT1=
EXTT2=
EXTT3=
EXTT4=
EXTT5=
EXTT6=
EXTT7=
EXTT8=
EXTT9=
EXTT10=
PLAYORDER=
